<?xml version="1.0" encoding="iso-8859-1"?>
<!-- Generator: Adobe Illustrator 19.0.0, SVG Export Plug-In . SVG Version: 6.00 Build 0)  -->
<svg version="1.1" id="Layer_1" xmlns="http://www.w3.org/2000/svg" xmlns:xlink="http://www.w3.org/1999/xlink" x="0px" y="0px"
	 viewBox="0 0 484.943 484.943" style="enable-background:new 0 0 484.943 484.943;" xml:space="preserve">
<g>
	<path d="M477.7,394.95c-12.667-18.019-37.518-38.025-71.865-57.856c-33.786-19.506-73.881-36.001-104.259-43.208
		c-1.968-16.546-10.733-31.035-23.433-40.569c8.949-29.912,14.713-72.89,14.713-111.908c0-39.661-4.9-71.186-14.173-91.166
		c-6.521-14.048-20.734-23.126-36.211-23.126c-15.478,0-29.691,9.078-36.211,23.126c-9.272,19.978-14.173,51.502-14.173,91.166
		c0,39.018,5.764,81.996,14.713,111.907c-12.7,9.534-21.465,24.023-23.433,40.569c-30.379,7.207-70.474,23.702-104.26,43.209
		C44.761,356.925,19.91,376.931,7.244,394.95c-8.907,12.67-9.662,29.519-1.923,42.923c7.147,12.38,20.46,19.954,34.607,19.954
		c1.17,0,2.348-0.052,3.527-0.157c21.938-1.959,51.689-13.478,86.038-33.309c33.784-19.505,68.115-45.979,89.545-68.683
		c7.196,3.094,15.117,4.813,23.434,4.813s16.237-1.72,23.434-4.813c21.432,22.704,55.763,49.178,89.546,68.683
		c34.349,19.831,64.1,31.349,86.037,33.309c1.18,0.105,2.355,0.157,3.527,0.157c14.145,0,27.459-7.575,34.606-19.954
		C487.361,424.47,486.607,407.622,477.7,394.95z M222.088,141.408c0-46.989,7.133-69.375,11.385-78.537
		c1.623-3.496,5.155-5.755,8.999-5.755c3.844,0,7.377,2.259,8.999,5.755c4.252,9.163,11.385,31.55,11.385,78.537
		c0,34.694-5.027,73.667-12.642,100.528c-2.536-0.331-5.117-0.52-7.742-0.52s-5.206,0.189-7.742,0.52
		C227.115,215.075,222.088,176.103,222.088,141.408z M114.493,398.381C73.8,421.875,50.846,426.89,40.785,427.789
		c-3.844,0.343-7.562-1.587-9.483-4.915c-1.922-3.33-1.732-7.518,0.485-10.671c5.809-8.264,21.629-25.634,62.322-49.128
		c30.043-17.345,66.304-32.477,93.375-39.314c2.005,4.816,4.628,9.31,7.764,13.392C175.793,357.181,144.547,381.029,114.493,398.381
		z M212.934,300.955c0-16.287,13.25-29.538,29.538-29.538s29.538,13.251,29.538,29.538s-13.251,29.538-29.538,29.538
		S212.934,317.242,212.934,300.955z M453.642,422.874c-1.923,3.329-5.658,5.262-9.483,4.916
		c-10.061-0.899-33.015-5.914-73.707-29.408c-30.053-17.351-61.299-41.199-80.755-61.229c3.137-4.082,5.76-8.576,7.765-13.392
		c27.07,6.837,63.331,21.969,93.374,39.314c40.692,23.495,56.514,40.865,62.321,49.127
		C455.373,415.355,455.564,419.544,453.642,422.874z"/>
</g>
<g>
</g>
<g>
</g>
<g>
</g>
<g>
</g>
<g>
</g>
<g>
</g>
<g>
</g>
<g>
</g>
<g>
</g>
<g>
</g>
<g>
</g>
<g>
</g>
<g>
</g>
<g>
</g>
<g>
</g>
</svg>
